<svg xmlns="http://www.w3.org/2000/svg" viewBox="0 0 512.003 512.003">
    <path d="M478.179 271.441a33.604 33.604 0 00-16.102 4.085c-4.901-12.646-17.188-21.64-31.543-21.64-9.284 0-17.705 3.762-23.823 9.839-6.118-6.077-14.538-9.839-23.822-9.839a33.615 33.615 0 00-13.822 2.965v-28.899c.308.029.62.047.936.047h83c17.094 0 31-13.906 31-31v-43.001c0-5.522-4.478-10-10-10s-10 4.478-10 10V197c0 6.065-4.935 11-11 11h-83c-.316 0-.627.019-.936.047v-21.414c0-18.649-15.173-33.822-33.823-33.822-18.649 0-33.822 15.173-33.822 33.822V208h-14.419c-6.065 0-11-4.935-11-11V31c0-6.065 4.935-11 11-11h166c6.065 0 11 4.935 11 11v43c0 5.522 4.478 10 10 10s10-4.478 10-10V31c0-17.094-13.906-31-31-31h-166c-17.094 0-31 13.906-31 31v166c0 17.094 13.906 31 31 31h14.419v84.818l-34.462 50.519c-11.563 16.949-13.331 39.018-4.618 57.592l40.026 85.318a10.003 10.003 0 0013.301 4.807c5-2.346 7.151-8.301 4.807-13.301l-40.026-85.318c-5.724-12.2-4.562-26.695 3.032-37.827l17.94-26.299v18.906c0 5.522 4.478 10 10 10s10-4.478 10-10V186.634c0-7.622 6.2-13.822 13.822-13.822s13.823 6.2 13.823 13.822v147.707c0 5.522 4.478 10 10 10s10-4.478 10-10v-46.632c0-7.622 6.2-13.822 13.822-13.822s13.822 6.2 13.822 13.822v46.632c0 5.522 4.478 10 10 10s10-4.478 10-10v-46.632c0-7.622 6.201-13.822 13.823-13.822s13.822 6.2 13.822 13.822v46.632c0 5.522 4.478 10 10 10s10-4.478 10-10v-29.077c0-7.622 6.201-13.822 13.823-13.822s13.822 6.2 13.822 13.822v83.6a218.9 218.9 0 01-10.041 65.578l-13.976 44.566c-1.652 5.27 1.28 10.882 6.55 12.534a9.975 9.975 0 002.995.461c4.254-.001 8.199-2.737 9.539-7.011l13.976-44.566a238.892 238.892 0 0010.957-71.563v-83.6c0-18.649-15.172-33.822-33.822-33.822zM197.001 0h-166c-17.094 0-31 13.906-31 31v166c0 17.094 13.906 31 31 31h43c5.522 0 10-4.478 10-10s-4.478-10-10-10h-43c-6.065 0-11-4.935-11-11V31c0-6.065 4.935-11 11-11h166c6.065 0 11 4.935 11 11v166c0 6.065-4.935 11-11 11h-43c-5.522 0-10 4.478-10 10s4.478 10 10 10h43c17.094 0 31-13.906 31-31V31c0-17.094-13.906-31-31-31z"/>
    <path d="M156.193 156.19c3.905-3.905 3.905-10.237 0-14.143L128.144 114l28.049-28.048c3.905-3.905 3.905-10.237 0-14.143-3.905-3.903-10.235-3.905-14.143 0l-28.049 28.048-28.048-28.048c-3.906-3.904-10.236-3.904-14.143 0-3.905 3.905-3.905 10.237 0 14.143L99.859 114 71.81 142.048c-3.905 3.905-3.905 10.237 0 14.143a9.972 9.972 0 007.071 2.929 9.972 9.972 0 007.071-2.929l28.049-28.048 28.049 28.048c1.953 1.952 4.512 2.929 7.071 2.929s5.119-.977 7.072-2.93zM414.436 65.249l-49.833 49.833-20.922-20.922c-3.906-3.904-10.236-3.904-14.143 0-3.905 3.905-3.905 10.237 0 14.143l27.993 27.993c1.953 1.952 4.512 2.929 7.071 2.929s5.118-.977 7.071-2.929l56.904-56.904c3.905-3.905 3.905-10.237 0-14.143-3.905-3.904-10.235-3.904-14.141 0zM114.001 207.996c-2.63 0-5.21 1.07-7.07 2.931-1.86 1.859-2.93 4.439-2.93 7.069s1.069 5.21 2.93 7.07c1.86 1.87 4.44 2.93 7.07 2.93s5.21-1.06 7.069-2.93c1.86-1.86 2.931-4.44 2.931-7.07s-1.07-5.21-2.931-7.069a10.068 10.068 0 00-7.069-2.931zM474.001 103.996c-2.63 0-5.21 1.07-7.07 2.931a10.072 10.072 0 00-2.93 7.069c0 2.641 1.069 5.21 2.93 7.07 1.86 1.87 4.44 2.93 7.07 2.93s5.21-1.06 7.069-2.93c1.86-1.86 2.931-4.44 2.931-7.07s-1.07-5.21-2.931-7.069a10.068 10.068 0 00-7.069-2.931z"/>
</svg>