<svg xmlns="http://www.w3.org/2000/svg" viewBox="0 0 24 24">
   	<path d="M14.4 0l7.2 7.2 0 14.4c0,1.32 -1.08,2.4 -2.4,2.4l-14.4 0c-1.32,0 -2.4,-1.08 -2.4,-2.4l0 -19.2c0,-1.32 1.08,-2.4 2.4,-2.4l9.6 0 0 0zm4.8 21.6l0 -13.2 -6 0 0 -6 -8.4 0 0 19.2 14.4 0 0 0zm-8.5 -9.23c-0.28,-0.92 -0.92,-3.87 0.76,-3.92 1.68,-0.05 0.58,3.74 0.58,3.74 0.46,1.79 2.42,3.07 2.42,3.07 0.6,-0.18 4.02,-0.57 3.54,1.21 -0.52,1.77 -4.2,0.1 -4.2,0.1 -2.34,0.17 -4.09,0.8 -4.09,0.8 -1.36,2.53 -2.94,3.63 -3.59,2.56 -0.8,-1.33 2.56,-3.04 2.56,-3.04 1.74,-2.83 2,-4.47 2.02,-4.52l0 0zm0.78 1.01c-0.48,1.56 -1.44,3.23 -1.44,3.23 1.02,-0.41 3.26,-0.88 3.26,-0.88 -1.37,-1.2 -1.79,-2.34 -1.82,-2.35l0 0zm3.77 2.6c0,0 2.1,0.79 2.15,0.47 0.08,-0.32 -1.6,-0.61 -2.15,-0.47l0 0zm-6.79 1.79c-0.93,0.36 -1.81,1.9 -1.6,1.9 0.22,0.01 1.1,-0.72 1.6,-1.9l0 0zm3.02 -6.66c0,-0.06 0.52,-2.01 0,-2.07 -0.36,-0.04 -0.01,2.02 0,2.07z"/>
</svg>
